<svg xmlns="http://www.w3.org/2000/svg" viewBox="0 0 100 100">
  <style>
    path { fill: #9333EA; }
    @media (prefers-color-scheme: dark) {
      path { fill: #A855F7; }
    }
  </style>
  <path
    fillRule="evenodd"
    clipRule="evenodd"
    d="M36.5 65C36.5 55 45 50 45 50C45 50 36.5 45 36.5 35C36.5 25 45 15 60 15C75 15 83.5 25 83.5 35C83.5 45 75 50 70 50C75 50 83.5 55 83.5 65C83.5 75 75 85 60 85C45 85 36.5 75 36.5 65Z"
  />
  <path
    d="M20 50C20 55 25 60 30 60C35 60 40 55 40 50C40 45 35 40 30 40C25 40 20 45 20 50Z"
  />
  <path
    d="M15 40C15 42.5 17.5 45 20 45C22.5 45 25 42.5 25 40C25 37.5 22.5 35 20 35C17.5 35 15 37.5 15 40Z"
  />
</svg>