
<svg xmlns="http://www.w3.org/2000/svg" width="500" height="500" viewBox="0 0 500 500">
  <defs>
    <pattern id="sacred-geometry" x="0" y="0" width="100" height="100" patternUnits="userSpaceOnUse">
      <circle cx="50" cy="50" r="40" fill="none" stroke="#FF7F50" stroke-width="0.5" opacity="0.5" />
      <circle cx="50" cy="50" r="30" fill="none" stroke="#FF7F50" stroke-width="0.5" opacity="0.5" />
      <circle cx="50" cy="50" r="20" fill="none" stroke="#FF7F50" stroke-width="0.5" opacity="0.5" />
      <path d="M10,50 L90,50 M50,10 L50,90" stroke="#FF7F50" stroke-width="0.5" fill="none" opacity="0.5" />
      <path d="M20,20 L80,80 M20,80 L80,20" stroke="#FF7F50" stroke-width="0.5" fill="none" opacity="0.5" />
      <path d="M26,50 A 24,24 0 1 0 74,50 A 24,24 0 1 0 26,50" fill="none" stroke="#FF7F50" stroke-width="0.5" opacity="0.5" />
      <polygon points="50,14 61,40 90,40 67,58 75,86 50,70 25,86 33,58 10,40 39,40" fill="none" stroke="#FF7F50" stroke-width="0.2" opacity="0.3" />
    </pattern>
  </defs>
  <rect width="500" height="500" fill="url(#sacred-geometry)" />
</svg>
